<?xml version="1.0" standalone="no"?>
<!DOCTYPE svg PUBLIC "-//W3C//DTD SVG 20010904//EN"
 "http://www.w3.org/TR/2001/REC-SVG-20010904/DTD/svg10.dtd">
<svg version="1.0" xmlns="http://www.w3.org/2000/svg"
 width="641.000000pt" height="176.000000pt" viewBox="0 0 641.000000 176.000000"
 preserveAspectRatio="xMidYMid meet">

<g transform="translate(0.000000,176.000000) scale(0.100000,-0.100000)"
fill="#000000" stroke="none">
<path d="M922 1524 l3 -236 268 -89 c148 -49 273 -89 278 -89 6 0 8 93 7 232
l-3 231 -278 93 -277 93 2 -235z"/>
<path d="M403 1617 l-403 -131 0 -337 0 -337 78 23 c42 14 110 36 151 50 41
14 78 25 82 25 5 0 10 -57 11 -127 l3 -126 163 -55 162 -54 0 -273 0 -274 118
39 c64 21 251 82 415 135 l297 96 0 334 c0 221 -3 335 -10 335 -9 0 -209 -63
-247 -77 -10 -4 -13 24 -13 120 l0 125 -187 64 -188 63 -3 258 c-2 196 -5 257
-15 256 -6 0 -193 -60 -414 -132z m397 -142 c0 -124 -4 -225 -8 -225 -5 0 -48
13 -97 30 -49 16 -90 30 -92 30 -2 0 -3 -60 -3 -133 l0 -133 -117 -39 c-65
-21 -191 -62 -281 -91 l-162 -52 2 301 3 301 100 32 c55 17 219 70 365 117
146 47 271 86 278 86 9 1 12 -50 12 -224z m112 -502 l3 -68 30 0 c25 0 30 4
33 28 3 27 4 27 73 27 l69 0 0 -75 0 -75 -70 0 c-68 0 -70 1 -70 25 0 22 -4
25 -35 25 l-35 0 0 -65 0 -65 -150 0 -150 0 0 65 0 65 -35 0 c-31 0 -35 -3
-35 -25 0 -24 -2 -25 -70 -25 l-70 0 0 75 0 75 69 0 c69 0 70 0 73 -27 3 -24
8 -28 33 -28 l30 0 3 68 3 67 149 0 149 0 3 -67z m538 -378 l0 -294 -369 -121
c-203 -66 -374 -120 -380 -120 -8 0 -11 82 -9 297 l3 296 100 34 c54 18 105
33 112 33 9 0 13 -34 15 -132 l3 -131 143 -48 142 -48 0 229 0 228 103 35 c56
20 110 36 120 36 16 1 17 -19 17 -294z"/>
<path d="M2203 1381 c-140 -48 -214 -150 -215 -294 0 -154 60 -219 262 -281
103 -31 147 -57 161 -94 17 -42 0 -92 -40 -119 -68 -46 -176 -20 -271 65 l-46
40 -59 -96 -59 -95 42 -37 c87 -78 215 -117 351 -107 107 7 186 43 251 113 60
67 83 132 84 236 0 66 -5 85 -30 135 -38 75 -81 103 -224 149 -63 20 -125 43
-138 51 -33 20 -46 60 -31 95 30 73 143 77 250 9 l46 -29 39 91 c21 50 40 94
42 98 5 10 -132 68 -187 79 -80 15 -169 12 -228 -9z"/>
<path d="M3683 1385 c-105 -23 -206 -83 -278 -164 -173 -196 -161 -521 25
-710 105 -107 260 -160 426 -147 295 22 455 196 466 506 l3 85 -262 3 -263 2
0 -105 0 -105 131 0 132 0 -7 -32 c-17 -85 -120 -152 -236 -152 -115 -1 -187
41 -238 138 -25 47 -27 61 -27 166 0 105 2 119 27 166 49 94 117 134 225 134
80 0 134 -22 184 -73 l34 -35 113 53 c61 30 112 58 112 64 0 22 -117 127 -177
159 -110 58 -257 76 -390 47z"/>
<path d="M2830 885 l0 -495 135 0 135 0 0 495 0 495 -135 0 -135 0 0 -495z"/>
<path d="M4554 888 l-170 -493 129 -3 c71 -1 131 -1 134 1 2 2 14 40 26 83
l23 79 196 3 196 2 22 -84 23 -84 131 -4 c72 -2 189 -1 261 2 l130 5 24 82 24
83 194 0 c146 0 195 -3 198 -13 2 -6 13 -45 25 -85 l21 -72 129 0 c98 0 130 3
129 13 0 6 -75 228 -167 492 l-167 480 -169 0 -168 0 -104 -300 c-57 -165
-131 -380 -165 -478 -38 -110 -65 -174 -70 -165 -4 7 -73 204 -154 438 -81
234 -154 444 -162 468 l-15 42 -167 0 -167 0 -170 -492z m412 77 c30 -99 57
-188 60 -197 5 -17 -6 -18 -130 -18 -75 0 -136 4 -136 8 0 5 24 89 54 188 29
98 57 195 61 214 11 53 18 58 28 20 5 -19 34 -116 63 -215z m949 199 c3 -21
31 -117 61 -215 30 -97 54 -182 54 -188 0 -11 -251 -17 -262 -6 -3 3 18 83 47
178 29 95 58 196 65 224 13 59 24 61 35 7z"/>
<path d="M0 425 l0 -233 273 -91 c149 -50 278 -91 285 -91 9 0 12 53 12 229
l0 229 -285 95 -285 95 0 -233z"/>
</g>
</svg>
